<?xml version="1.0" standalone="no"?><svg xmlns:xlink="http://www.w3.org/1999/xlink" xmlns="http://www.w3.org/2000/svg" viewBox="0 0 1000 1000" preserveAspectRatio="xMaxYMax slice"><g transform="scale(1.6207455429497568)"><rect x="0" y="0" width="617" height="617" fill="#ffffff"/><circle cx="28.05" cy="28.05" r="5.61" fill="#ffedc3"/><circle cx="84.14" cy="28.05" r="5.61" fill="#fffaf0"/><circle cx="140.23000000000002" cy="28.05" r="5.61" fill="#fff3d7"/><circle cx="196.32000000000002" cy="28.05" r="5.61" fill="#bc88fa"/><circle cx="252.41000000000003" cy="28.05" r="5.61" fill="#ffd982"/><circle cx="308.5" cy="28.05" r="5.61" fill="#e6d3fd"/><circle cx="364.59000000000003" cy="28.05" r="5.61" fill="#fffbf3"/><circle cx="420.68" cy="28.05" r="5.61" fill="#b67efa"/><circle cx="476.77000000000004" cy="28.05" r="5.61" fill="#c69afb"/><circle cx="532.86" cy="28.05" r="5.61" fill="#ffe097"/><circle cx="588.96" cy="28.05" r="5.61" fill="#ffdc8b"/><circle cx="28.05" cy="84.14" r="5.61" fill="#fff7e4"/><circle cx="84.14" cy="84.14" r="5.61" fill="#f7f1fe"/><circle cx="140.23000000000002" cy="84.14" r="5.61" fill="#ffd063"/><circle cx="196.32000000000002" cy="84.14" r="5.61" fill="#d0adfc"/><circle cx="252.41000000000003" cy="84.14" r="5.61" fill="#ffd471"/><circle cx="308.5" cy="84.14" r="5.61" fill="#d5b4fc"/><circle cx="364.59000000000003" cy="84.14" r="5.61" fill="#ffd471"/><circle cx="420.68" cy="84.14" r="5.61" fill="#ddc4fd"/><circle cx="476.77000000000004" cy="84.14" r="5.61" fill="#bb87fa"/><circle cx="532.86" cy="84.14" r="5.61" fill="#ffe4a5"/><circle cx="588.96" cy="84.14" r="5.61" fill="#f3eafe"/><circle cx="28.05" cy="140.23000000000002" r="5.61" fill="#a35cf8"/><circle cx="84.14" cy="140.23000000000002" r="5.61" fill="#ffd77b"/><circle cx="140.23000000000002" cy="140.23000000000002" r="5.61" fill="#fff8e7"/><circle cx="196.32000000000002" cy="140.23000000000002" r="5.61" fill="#ffe3a3"/><circle cx="252.41000000000003" cy="140.23000000000002" r="5.61" fill="#9e54f8"/><circle cx="308.5" cy="140.23000000000002" r="5.61" fill="#ffeab9"/><circle cx="364.59000000000003" cy="140.23000000000002" r="5.61" fill="#ffe099"/><circle cx="420.68" cy="140.23000000000002" r="5.61" fill="#c192fb"/><circle cx="476.77000000000004" cy="140.23000000000002" r="5.61" fill="#fff1d1"/><circle cx="532.86" cy="140.23000000000002" r="5.61" fill="#fff7e5"/><circle cx="588.96" cy="140.23000000000002" r="5.61" fill="#bd8afa"/><circle cx="28.05" cy="196.32000000000002" r="5.61" fill="#e0c9fd"/><circle cx="84.14" cy="196.32000000000002" r="5.61" fill="#ffe4a6"/><circle cx="140.23000000000002" cy="196.32000000000002" r="5.61" fill="#ffd676"/><circle cx="196.32000000000002" cy="196.32000000000002" r="5.61" fill="#fff4da"/><circle cx="252.41000000000003" cy="196.32000000000002" r="5.61" fill="#e5d2fd"/><circle cx="308.5" cy="196.32000000000002" r="5.61" fill="#ffefca"/><circle cx="364.59000000000003" cy="196.32000000000002" r="5.61" fill="#e7d4fd"/><circle cx="420.68" cy="196.32000000000002" r="5.61" fill="#f4ebfe"/><circle cx="476.77000000000004" cy="196.32000000000002" r="5.61" fill="#ba85fa"/><circle cx="532.86" cy="196.32000000000002" r="5.61" fill="#f2e8fe"/><circle cx="588.96" cy="196.32000000000002" r="5.61" fill="#bd8afa"/><circle cx="28.05" cy="252.41000000000003" r="5.61" fill="#c89ffb"/><circle cx="84.14" cy="252.41000000000003" r="5.61" fill="#fffefd"/><circle cx="140.23000000000002" cy="252.41000000000003" r="5.61" fill="#ddc3fd"/><circle cx="196.32000000000002" cy="252.41000000000003" r="5.61" fill="#fff6e1"/><circle cx="252.41000000000003" cy="252.41000000000003" r="5.61" fill="#b781fa"/><circle cx="308.5" cy="252.41000000000003" r="5.61" fill="#ffebbd"/><circle cx="364.59000000000003" cy="252.41000000000003" r="5.61" fill="#e3cdfd"/><circle cx="420.68" cy="252.41000000000003" r="5.61" fill="#ffdf94"/><circle cx="476.77000000000004" cy="252.41000000000003" r="5.61" fill="#ae70f9"/><circle cx="532.86" cy="252.41000000000003" r="5.61" fill="#dec5fd"/><circle cx="588.96" cy="252.41000000000003" r="5.61" fill="#e2ccfd"/><circle cx="28.05" cy="308.5" r="5.61" fill="#ba85fa"/><circle cx="84.14" cy="308.5" r="5.61" fill="#cfabfc"/><circle cx="140.23000000000002" cy="308.5" r="5.61" fill="#ffdc8a"/><circle cx="196.32000000000002" cy="308.5" r="5.61" fill="#d5b6fc"/><circle cx="252.41000000000003" cy="308.5" r="5.61" fill="#ffe4a6"/><circle cx="308.5" cy="308.5" r="5.61" fill="#ffe3a1"/><circle cx="364.59000000000003" cy="308.5" r="5.61" fill="#caa2fb"/><circle cx="420.68" cy="308.5" r="5.61" fill="#a25bf8"/><circle cx="476.77000000000004" cy="308.5" r="5.61" fill="#f8f2fe"/><circle cx="532.86" cy="308.5" r="5.61" fill="#cba4fb"/><circle cx="588.96" cy="308.5" r="5.61" fill="#ffcf5e"/><circle cx="28.05" cy="364.59000000000003" r="5.61" fill="#b176f9"/><circle cx="84.14" cy="364.59000000000003" r="5.61" fill="#ffefca"/><circle cx="140.23000000000002" cy="364.59000000000003" r="5.61" fill="#e5d0fd"/><circle cx="196.32000000000002" cy="364.59000000000003" r="5.61" fill="#ffd677"/><circle cx="252.41000000000003" cy="364.59000000000003" r="5.61" fill="#cea8fb"/><circle cx="308.5" cy="364.59000000000003" r="5.61" fill="#a25bf8"/><circle cx="364.59000000000003" cy="364.59000000000003" r="5.61" fill="#cda6fb"/><circle cx="420.68" cy="364.59000000000003" r="5.61" fill="#dec4fd"/><circle cx="476.77000000000004" cy="364.59000000000003" r="5.61" fill="#d4b3fc"/><circle cx="532.86" cy="364.59000000000003" r="5.61" fill="#e5d1fd"/><circle cx="588.96" cy="364.59000000000003" r="5.61" fill="#fffdf9"/><circle cx="28.05" cy="420.68" r="5.61" fill="#ffca50"/><circle cx="84.14" cy="420.68" r="5.61" fill="#dbbffc"/><circle cx="140.23000000000002" cy="420.68" r="5.61" fill="#ffdd8d"/><circle cx="196.32000000000002" cy="420.68" r="5.61" fill="#ffcb53"/><circle cx="252.41000000000003" cy="420.68" r="5.61" fill="#ffe3a1"/><circle cx="308.5" cy="420.68" r="5.61" fill="#ffd269"/><circle cx="364.59000000000003" cy="420.68" r="5.61" fill="#ffd87e"/><circle cx="420.68" cy="420.68" r="5.61" fill="#ffd87c"/><circle cx="476.77000000000004" cy="420.68" r="5.61" fill="#b47bfa"/><circle cx="532.86" cy="420.68" r="5.61" fill="#d4b3fc"/><circle cx="588.96" cy="420.68" r="5.61" fill="#ffcc57"/><circle cx="28.05" cy="476.77000000000004" r="5.61" fill="#ffda83"/><circle cx="84.14" cy="476.77000000000004" r="5.61" fill="#ffce5b"/><circle cx="140.23000000000002" cy="476.77000000000004" r="5.61" fill="#e3cdfd"/><circle cx="196.32000000000002" cy="476.77000000000004" r="5.61" fill="#fffbf1"/><circle cx="252.41000000000003" cy="476.77000000000004" r="5.61" fill="#ffd470"/><circle cx="308.5" cy="476.77000000000004" r="5.61" fill="#ffcf5e"/><circle cx="364.59000000000003" cy="476.77000000000004" r="5.61" fill="#ffe097"/><circle cx="420.68" cy="476.77000000000004" r="5.61" fill="#e0c8fd"/><circle cx="476.77000000000004" cy="476.77000000000004" r="5.61" fill="#b37afa"/><circle cx="532.86" cy="476.77000000000004" r="5.61" fill="#fffeff"/><circle cx="588.96" cy="476.77000000000004" r="5.61" fill="#ffd062"/><circle cx="28.05" cy="532.86" r="5.61" fill="#fffbf1"/><circle cx="84.14" cy="532.86" r="5.61" fill="#d9bdfc"/><circle cx="140.23000000000002" cy="532.86" r="5.61" fill="#ffe9b6"/><circle cx="196.32000000000002" cy="532.86" r="5.61" fill="#ffde90"/><circle cx="252.41000000000003" cy="532.86" r="5.61" fill="#c599fb"/><circle cx="308.5" cy="532.86" r="5.61" fill="#a764f9"/><circle cx="364.59000000000003" cy="532.86" r="5.61" fill="#ffe6ac"/><circle cx="420.68" cy="532.86" r="5.61" fill="#ffd166"/><circle cx="476.77000000000004" cy="532.86" r="5.61" fill="#fffefb"/><circle cx="532.86" cy="532.86" r="5.61" fill="#ffdf94"/><circle cx="588.96" cy="532.86" r="5.61" fill="#caa1fb"/><circle cx="28.05" cy="588.96" r="5.61" fill="#ffcb52"/><circle cx="84.14" cy="588.96" r="5.61" fill="#ffd46f"/><circle cx="140.23000000000002" cy="588.96" r="5.61" fill="#d5b5fc"/><circle cx="196.32000000000002" cy="588.96" r="5.61" fill="#fff6e1"/><circle cx="252.41000000000003" cy="588.96" r="5.61" fill="#b075f9"/><circle cx="308.5" cy="588.96" r="5.61" fill="#ffd063"/><circle cx="364.59000000000003" cy="588.96" r="5.61" fill="#b984fa"/><circle cx="420.68" cy="588.96" r="5.61" fill="#ffe097"/><circle cx="476.77000000000004" cy="588.96" r="5.61" fill="#ffdd8f"/><circle cx="532.86" cy="588.96" r="5.61" fill="#ffe19a"/><circle cx="588.96" cy="588.96" r="5.61" fill="#af72f9"/></g></svg>